<svg xmlns="http://www.w3.org/2000/svg" xmlns:xlink="http://www.w3.org/1999/xlink" width="1900" zoomAndPan="magnify" viewBox="0 0 1425 479.999983" height="640" preserveAspectRatio="xMidYMid meet" version="1.0"><defs><clipPath id="81c24c579c"><path d="M 48 4.796875 L 1178 4.796875 L 1178 475.046875 L 48 475.046875 Z M 48 4.796875 " clip-rule="nonzero"/></clipPath></defs><path fill="#000000" d="M 222.773438 87.105469 C 263.386719 44.261719 319.632812 19.253906 361.59375 19.253906 C 403.550781 19.253906 435.246094 38.890625 435.246094 74.613281 C 435.246094 120.144531 383.914062 140.234375 336.152344 140.234375 C 316.0625 140.234375 294.195312 137.550781 271.875 133.976562 C 261.613281 158.527344 255.355469 187.539062 255.355469 220.121094 C 255.355469 262.078125 280.363281 282.628906 310.714844 282.628906 C 329.007812 282.628906 342.867188 276.371094 356.699219 266.5625 C 360.730469 263.878906 362.957031 262.535156 365.621094 262.535156 C 369.648438 262.535156 375.449219 273.253906 375.449219 278.167969 C 375.449219 281.738281 373.21875 284.855469 368.761719 288.882812 C 352.695312 302.71875 321.433594 317.894531 288.851562 317.894531 C 226.800781 317.894531 171.441406 283.515625 171.441406 210.773438 C 171.441406 177.734375 180.816406 147.378906 196.449219 121.941406 C 184.386719 120.144531 172.785156 119.257812 162.066406 119.257812 C 137.058594 119.257812 124.113281 130.40625 124.113281 149.609375 C 124.113281 168.816406 136.171875 179.078125 136.171875 183.535156 C 136.171875 186.222656 133.941406 187.996094 130.371094 187.996094 C 116.082031 187.996094 64.292969 160.328125 64.292969 112.566406 C 64.292969 83.558594 92.417969 60.347656 125.886719 60.347656 C 159.359375 60.347656 191.054688 73.75 222.75 87.128906 Z M 285.734375 107.199219 C 292.421875 108.085938 299.136719 108.539062 305.824219 108.539062 C 355.8125 108.539062 379.476562 85.785156 379.476562 66.582031 C 379.476562 57.664062 372.789062 50.519531 362.503906 50.519531 C 338.40625 50.519531 308.054688 71.042969 285.734375 107.222656 Z M 285.734375 107.199219 " fill-opacity="1" fill-rule="nonzero"/><path fill="#000000" d="M 553.109375 299.578125 C 553.109375 321.898438 567.398438 339.304688 594.179688 339.304688 C 608.015625 339.304688 614.273438 334.390625 618.277344 334.390625 C 621.390625 334.390625 623.621094 336.621094 623.621094 339.738281 C 623.621094 348.65625 595.953125 378.121094 547.738281 378.121094 C 510.695312 378.121094 480.34375 353.570312 480.34375 317.414062 C 480.34375 265.195312 521.414062 219.667969 521.414062 201.804688 C 521.414062 197.777344 518.730469 194.660156 514.269531 194.660156 C 505.78125 194.660156 486.601562 201.351562 473.65625 223.671875 C 459.820312 246.878906 443.300781 291.976562 443.300781 307.15625 C 443.300781 313.84375 441.957031 317.871094 434.8125 317.871094 C 413.835938 317.871094 384.824219 312.523438 384.824219 296.4375 C 384.824219 266.972656 471.425781 91.996094 471.425781 58.070312 C 471.425781 53.613281 475.453125 50.496094 483.914062 50.496094 C 507.125 50.496094 527.671875 70.585938 527.671875 83.078125 C 527.671875 102.28125 492.859375 170.566406 492.859375 176.367188 C 492.859375 177.253906 493.3125 177.710938 494.203125 177.710938 C 495.976562 177.710938 526.785156 156.730469 555.363281 156.730469 C 577.683594 156.730469 589.746094 168.335938 589.746094 186.195312 C 589.746094 216.550781 553.132812 256.277344 553.132812 299.578125 Z M 553.109375 299.578125 " fill-opacity="1" fill-rule="nonzero"/><path fill="#000000" d="M 636.59375 307.179688 C 636.59375 313.867188 635.25 317.894531 628.105469 317.894531 C 607.125 317.894531 578.117188 312.546875 578.117188 296.460938 C 578.117188 264.332031 622.757812 200.03125 622.757812 164.332031 C 622.757812 159.871094 626.785156 156.730469 635.25 156.730469 C 662.03125 156.730469 678.550781 176.824219 678.550781 189.3125 C 678.550781 215.207031 636.59375 273.230469 636.59375 307.152344 Z M 688.378906 68.355469 C 704.445312 68.355469 716.503906 78.617188 716.503906 95.136719 C 716.503906 117.890625 699.097656 139.324219 678.550781 139.324219 C 662.917969 139.324219 649.085938 129.0625 649.085938 113 C 649.085938 89.789062 666.492188 68.355469 688.355469 68.355469 Z M 688.378906 68.355469 " fill-opacity="1" fill-rule="nonzero"/><path fill="#000000" d="M 824.96875 256.734375 C 828.542969 256.734375 832.113281 260.304688 832.113281 264.332031 C 832.113281 272.367188 806.675781 318.78125 736.59375 318.78125 C 706.242188 318.78125 680.804688 300.488281 680.804688 267.882812 C 680.804688 212.523438 741.054688 156.730469 802.214844 156.730469 C 836.597656 156.730469 849.976562 174.59375 849.976562 192 C 849.976562 226.378906 793.730469 254.933594 753.546875 262.535156 C 756.230469 271.910156 763.375 277.257812 776.300781 277.257812 C 806.652344 277.257812 818.257812 256.734375 824.945312 256.734375 Z M 753.976562 237.097656 C 782.988281 229.066406 807.109375 208.085938 807.109375 194.253906 C 807.109375 188.90625 803.992188 186.652344 799.507812 186.652344 C 785.21875 186.652344 761.121094 209.859375 753.976562 237.097656 Z M 753.976562 237.097656 " fill-opacity="1" fill-rule="nonzero"/><path fill="#000000" d="M 1045.929688 83.078125 C 1045.929688 98.710938 1024.496094 123.691406 1013.347656 123.691406 C 1006.203125 123.691406 1008 92.453125 995.941406 92.453125 C 984.792969 92.453125 961.128906 154.5 958.898438 160.757812 C 958.898438 160.757812 978.535156 159.871094 984.335938 159.871094 C 987.453125 159.871094 988.363281 161.644531 988.363281 165.21875 C 988.363281 173.25 978.535156 200.917969 945.0625 200.917969 C 941.492188 200.917969 941.035156 202.714844 939.261719 205.832031 C 922.742188 241.988281 904.449219 294.207031 904.449219 307.152344 C 904.449219 313.84375 903.105469 317.871094 895.960938 317.871094 C 874.984375 317.871094 845.972656 312.523438 845.972656 296.4375 C 845.972656 284.832031 866.496094 230.382812 878.097656 200.007812 C 868.269531 200.007812 864.695312 197.777344 864.695312 194.203125 C 864.695312 186.605469 873.183594 161.167969 894.59375 161.167969 C 918.691406 100.460938 943.695312 50.472656 999.058594 50.472656 C 1021.832031 50.472656 1045.929688 66.988281 1045.929688 83.054688 Z M 1045.929688 83.078125 " fill-opacity="1" fill-rule="nonzero"/><g clip-path="url(#81c24c579c)"><path fill="#1d1d1b" d="M 1156.242188 130.527344 C 1155.59375 130.070312 1154.945312 129.613281 1154.273438 129.160156 C 1153.628906 128.703125 1152.980469 128.246094 1152.308594 127.792969 C 1151.660156 127.335938 1151.015625 126.882812 1150.34375 126.425781 C 1149.695312 125.945312 1149.023438 125.492188 1148.351562 125.035156 C 1147.730469 124.578125 1147.082031 124.125 1146.433594 123.691406 C 1145.789062 123.238281 1145.140625 122.78125 1144.46875 122.324219 C 1143.820312 121.871094 1143.175781 121.414062 1142.503906 120.960938 C 1141.855469 120.503906 1141.207031 120.046875 1140.535156 119.59375 C 1139.890625 119.113281 1139.21875 118.65625 1138.546875 118.203125 C 1137.921875 117.746094 1137.277344 117.289062 1136.628906 116.859375 C 1135.980469 116.402344 1135.335938 115.949219 1134.664062 115.492188 C 1134.015625 115.039062 1133.367188 114.582031 1132.695312 114.125 C 1132.050781 113.671875 1131.402344 113.214844 1130.730469 112.757812 C 1130.082031 112.28125 1129.414062 111.824219 1128.742188 111.367188 C 1128.117188 110.914062 1127.46875 110.457031 1126.824219 110.027344 C 1126.175781 109.570312 1125.527344 109.113281 1124.855469 108.660156 C 1124.210938 108.203125 1123.5625 107.75 1122.890625 107.292969 C 1122.242188 106.835938 1121.597656 106.382812 1120.925781 105.925781 C 1120.277344 105.445312 1119.605469 104.992188 1118.933594 104.535156 C 1118.3125 104.082031 1117.664062 103.625 1117.015625 103.191406 C 1116.371094 102.738281 1115.722656 102.28125 1115.050781 101.828125 C 1114.402344 101.371094 1113.757812 100.914062 1113.085938 100.460938 C 1112.4375 100.003906 1111.789062 99.546875 1111.117188 99.09375 C 1110.472656 98.636719 1109.824219 98.183594 1109.152344 97.726562 C 1108.503906 97.246094 1107.835938 96.792969 1107.164062 96.335938 C 1106.539062 95.878906 1105.890625 95.425781 1105.246094 94.992188 C 1104.597656 94.539062 1103.949219 94.082031 1103.277344 93.625 C 1102.632812 93.171875 1101.984375 92.714844 1101.3125 92.261719 C 1100.664062 91.804688 1100.019531 91.347656 1099.347656 90.894531 C 1098.699219 90.414062 1098.027344 89.957031 1097.355469 89.503906 C 1096.734375 89.046875 1096.085938 88.59375 1095.4375 88.160156 C 1094.792969 87.703125 1094.144531 87.25 1093.472656 86.792969 C 1092.824219 86.339844 1092.179688 85.882812 1091.507812 85.425781 C 1090.859375 84.972656 1090.210938 84.515625 1089.539062 84.058594 C 1088.894531 83.605469 1088.246094 83.148438 1087.574219 82.695312 C 1086.925781 82.214844 1086.257812 81.757812 1085.585938 81.304688 C 1084.960938 80.847656 1084.3125 80.390625 1083.667969 79.960938 C 1083.019531 79.503906 1082.371094 79.050781 1081.699219 78.59375 C 1081.054688 78.136719 1080.40625 77.683594 1079.734375 77.226562 C 1079.085938 76.773438 1078.441406 76.316406 1077.769531 75.859375 C 1077.121094 75.382812 1076.449219 74.925781 1075.777344 74.46875 C 1075.15625 74.015625 1074.507812 73.558594 1073.859375 73.128906 C 1073.214844 72.671875 1072.566406 72.214844 1071.894531 71.761719 C 1071.246094 71.304688 1070.601562 70.851562 1069.929688 70.394531 C 1069.28125 69.9375 1068.632812 69.484375 1067.960938 69.027344 C 1067.316406 68.546875 1066.644531 68.09375 1065.972656 67.636719 C 1065.347656 67.179688 1064.703125 66.726562 1064.054688 66.292969 C 1063.40625 65.839844 1062.761719 65.382812 1062.089844 64.925781 C 1061.441406 64.472656 1060.792969 64.015625 1060.121094 63.5625 C 1059.476562 63.105469 1058.828125 62.648438 1058.15625 62.195312 C 1057.507812 61.714844 1056.839844 61.257812 1056.167969 60.804688 C 1055.542969 60.347656 1054.894531 59.894531 1054.25 59.460938 C 1053.601562 59.003906 1052.953125 58.550781 1052.28125 58.09375 C 1051.636719 57.640625 1050.988281 57.183594 1050.316406 56.726562 C 1049.667969 56.273438 1049.023438 55.816406 1048.351562 55.359375 C 1047.703125 54.90625 1047.054688 54.449219 1046.382812 53.996094 C 1045.738281 53.515625 1045.066406 53.058594 1044.394531 52.605469 C 1043.769531 52.148438 1043.125 51.691406 1042.476562 51.261719 C 1041.828125 50.804688 1041.183594 50.351562 1040.511719 49.894531 C 1028.644531 41.238281 1013.058594 35.941406 998.671875 35.941406 C 936.3125 35.941406 908.09375 88.039062 883.757812 148.027344 C 874.597656 150.519531 866.542969 156.394531 860.308594 165.074219 C 859.832031 164.714844 859.351562 164.378906 858.847656 164.042969 C 858.222656 163.585938 857.578125 163.132812 856.90625 162.675781 C 856.28125 162.195312 855.609375 161.765625 854.9375 161.308594 C 854.316406 160.832031 853.644531 160.398438 852.972656 159.941406 C 852.351562 159.464844 851.679688 159.03125 851.007812 158.578125 C 850.359375 158.097656 849.710938 157.640625 849.042969 157.1875 C 848.417969 156.730469 847.769531 156.273438 847.097656 155.84375 C 846.476562 155.363281 845.804688 154.933594 845.132812 154.476562 C 843.070312 152.964844 840.839844 151.550781 838.445312 150.28125 C 835.902344 147.308594 832.929688 144.742188 829.574219 142.609375 C 828.925781 142.152344 828.300781 141.671875 827.605469 141.242188 C 826.960938 140.785156 826.335938 140.308594 825.640625 139.875 C 824.992188 139.417969 824.371094 138.941406 823.675781 138.507812 C 823.027344 138.054688 822.378906 137.574219 821.707031 137.140625 C 821.0625 136.6875 820.4375 136.207031 819.765625 135.777344 C 819.121094 135.320312 818.496094 134.839844 817.800781 134.410156 C 817.152344 133.953125 816.53125 133.472656 815.835938 133.042969 C 815.1875 132.585938 814.5625 132.105469 813.867188 131.675781 C 813.222656 131.21875 812.574219 130.742188 811.902344 130.308594 C 811.253906 129.851562 810.632812 129.375 809.960938 128.941406 C 809.3125 128.488281 808.691406 128.007812 807.996094 127.574219 C 807.347656 127.121094 806.722656 126.640625 806.027344 126.210938 C 805.382812 125.753906 804.757812 125.273438 804.0625 124.84375 C 803.414062 124.386719 802.769531 123.90625 802.097656 123.476562 C 801.449219 123.019531 800.824219 122.539062 800.15625 122.109375 C 799.507812 121.652344 798.882812 121.175781 798.1875 120.742188 C 797.542969 120.285156 796.917969 119.808594 796.222656 119.375 C 795.574219 118.921875 794.953125 118.441406 794.257812 118.007812 C 793.609375 117.554688 792.960938 117.074219 792.289062 116.644531 C 791.644531 116.1875 791.019531 115.707031 790.347656 115.277344 C 789.699219 114.820312 789.078125 114.339844 788.382812 113.910156 C 787.734375 113.453125 787.113281 112.972656 786.417969 112.542969 C 785.769531 112.085938 785.144531 111.609375 784.449219 111.175781 C 783.804688 110.71875 783.179688 110.242188 782.484375 109.808594 C 781.835938 109.355469 781.191406 108.875 780.519531 108.441406 C 779.871094 107.988281 779.246094 107.507812 778.578125 107.078125 C 777.929688 106.621094 777.304688 106.140625 776.609375 105.710938 C 775.964844 105.253906 775.339844 104.773438 774.644531 104.34375 C 773.996094 103.886719 773.375 103.40625 772.679688 102.976562 C 772.03125 102.519531 771.382812 102.042969 770.710938 101.609375 C 770.066406 101.152344 769.441406 100.675781 768.769531 100.242188 C 768.121094 99.789062 767.5 99.308594 766.804688 98.875 C 766.15625 98.421875 765.535156 97.941406 764.839844 97.511719 C 764.191406 97.054688 763.566406 96.574219 762.871094 96.144531 C 762.226562 95.6875 761.601562 95.207031 760.90625 94.777344 C 760.257812 94.320312 759.613281 93.839844 758.941406 93.410156 C 758.292969 92.953125 757.667969 92.476562 757 92.042969 C 756.351562 91.585938 755.726562 91.109375 755.03125 90.675781 C 754.382812 90.222656 753.761719 89.742188 753.066406 89.308594 C 752.417969 88.855469 751.796875 88.375 751.101562 87.945312 C 750.453125 87.488281 749.804688 87.007812 749.132812 86.578125 C 748.488281 86.121094 747.863281 85.640625 747.191406 85.210938 C 746.542969 84.753906 745.921875 84.273438 745.226562 83.84375 C 744.578125 83.386719 743.957031 82.910156 743.261719 82.476562 C 742.613281 82.019531 741.988281 81.542969 741.292969 81.109375 C 740.648438 80.65625 740 80.175781 739.328125 79.742188 C 738.679688 79.289062 738.058594 78.808594 737.386719 78.378906 C 736.738281 77.921875 736.113281 77.441406 735.417969 77.011719 C 734.773438 76.554688 734.148438 76.074219 733.453125 75.644531 C 732.804688 75.1875 732.183594 74.707031 731.488281 74.277344 C 730.839844 73.820312 730.191406 73.34375 729.523438 72.910156 C 728.875 72.453125 728.25 71.976562 727.578125 71.542969 C 726.933594 71.089844 726.308594 70.609375 725.613281 70.175781 C 724.964844 69.722656 724.34375 69.242188 723.648438 68.8125 C 723 68.355469 722.378906 67.875 721.683594 67.445312 C 721.035156 66.988281 720.410156 66.507812 719.714844 66.078125 C 719.066406 65.621094 718.421875 65.140625 717.75 64.710938 C 717.101562 64.253906 716.480469 63.777344 715.808594 63.34375 C 715.160156 62.886719 714.535156 62.410156 713.839844 61.976562 C 706.746094 56.871094 697.753906 53.898438 687.589844 53.898438 C 658.339844 53.898438 633.644531 81.0625 633.644531 113.1875 C 633.644531 119.734375 635.226562 125.847656 638.03125 131.292969 C 637.046875 130.546875 636.039062 129.851562 635.035156 129.179688 C 634.386719 128.703125 633.738281 128.246094 633.066406 127.816406 C 632.421875 127.335938 631.773438 126.878906 631.101562 126.449219 C 630.453125 125.96875 629.78125 125.511719 629.136719 125.058594 C 628.488281 124.601562 627.839844 124.144531 627.195312 123.691406 C 626.546875 123.234375 625.898438 122.78125 625.25 122.324219 C 624.605469 121.84375 623.957031 121.390625 623.285156 120.957031 C 622.636719 120.476562 621.992188 120.023438 621.320312 119.589844 C 620.671875 119.109375 620.023438 118.65625 619.351562 118.222656 C 618.707031 117.746094 618.035156 117.289062 617.363281 116.832031 C 616.714844 116.378906 616.09375 115.921875 615.445312 115.492188 C 614.796875 115.011719 614.152344 114.554688 613.480469 114.125 C 612.832031 113.644531 612.183594 113.1875 611.511719 112.757812 C 610.867188 112.277344 610.21875 111.824219 609.546875 111.390625 C 608.898438 110.910156 608.230469 110.457031 607.558594 110 C 606.910156 109.542969 606.285156 109.089844 605.640625 108.65625 C 604.992188 108.179688 604.34375 107.722656 603.671875 107.292969 C 603.027344 106.8125 602.378906 106.355469 601.707031 105.925781 C 601.058594 105.445312 600.414062 104.988281 599.742188 104.558594 C 599.09375 104.078125 598.421875 103.621094 597.773438 103.167969 C 597.128906 102.710938 596.480469 102.257812 595.832031 101.800781 C 595.1875 101.34375 594.539062 100.890625 593.890625 100.433594 C 593.242188 99.953125 592.597656 99.5 591.925781 99.066406 C 591.277344 98.589844 590.628906 98.132812 589.960938 97.699219 C 589.3125 97.222656 588.664062 96.765625 587.992188 96.335938 C 587.347656 95.855469 586.675781 95.398438 586.003906 94.945312 C 585.355469 94.488281 584.730469 94.03125 584.085938 93.601562 C 583.4375 93.121094 582.789062 92.664062 582.117188 92.234375 C 581.472656 91.753906 580.824219 91.300781 580.152344 90.867188 C 579.503906 90.386719 578.859375 89.933594 578.1875 89.5 C 577.539062 89.023438 576.867188 88.566406 576.195312 88.109375 C 575.550781 87.65625 574.925781 87.199219 574.277344 86.769531 C 573.632812 86.289062 572.984375 85.832031 572.3125 85.402344 C 571.664062 84.921875 571.019531 84.464844 570.347656 84.035156 C 569.699219 83.554688 569.050781 83.097656 568.378906 82.667969 C 567.734375 82.1875 567.0625 81.734375 566.414062 81.277344 C 565.765625 80.820312 565.121094 80.367188 564.472656 79.910156 C 563.824219 79.457031 563.179688 79 562.53125 78.542969 C 561.882812 78.066406 561.234375 77.609375 560.566406 77.175781 C 559.917969 76.699219 559.269531 76.242188 558.597656 75.8125 C 557.953125 75.332031 557.304688 74.875 556.632812 74.445312 C 555.984375 73.964844 555.3125 73.507812 554.644531 73.054688 C 553.996094 72.597656 553.371094 72.140625 552.726562 71.710938 C 552.078125 71.230469 551.429688 70.777344 550.757812 70.34375 C 550.109375 69.863281 549.464844 69.410156 548.792969 68.976562 C 548.144531 68.5 547.496094 68.042969 546.828125 67.609375 C 546.179688 67.132812 545.507812 66.675781 544.835938 66.21875 C 544.1875 65.765625 543.566406 65.308594 542.917969 64.878906 C 542.269531 64.398438 541.625 63.941406 540.953125 63.511719 C 540.304688 63.03125 539.65625 62.578125 538.988281 62.144531 C 538.339844 61.664062 537.691406 61.210938 537.019531 60.777344 C 536.375 60.296875 535.703125 59.84375 535.054688 59.386719 C 534.40625 58.933594 533.761719 58.476562 533.113281 58.019531 C 532.464844 57.566406 531.816406 57.109375 531.171875 56.652344 C 530.523438 56.175781 529.875 55.71875 529.203125 55.289062 C 528.558594 54.808594 527.910156 54.351562 527.238281 53.921875 C 526.589844 53.441406 525.945312 52.984375 525.273438 52.554688 C 524.625 52.074219 523.953125 51.621094 523.28125 51.164062 C 522.636719 50.707031 522.011719 50.253906 521.363281 49.820312 C 520.71875 49.339844 520.070312 48.886719 519.398438 48.453125 C 508.34375 40.445312 495.519531 36.058594 482.835938 36.058594 C 470.152344 36.058594 462.335938 41.09375 458.476562 47.757812 C 458.09375 47.496094 457.683594 47.230469 457.300781 46.96875 C 456.679688 46.511719 456.03125 46.058594 455.359375 45.625 C 454.710938 45.167969 454.066406 44.714844 453.394531 44.257812 C 452.746094 43.804688 452.097656 43.347656 451.425781 42.890625 C 450.78125 42.4375 450.132812 41.980469 449.460938 41.527344 C 448.8125 41.046875 448.144531 40.589844 447.472656 40.136719 C 446.847656 39.679688 446.199219 39.222656 445.527344 38.792969 C 444.882812 38.335938 444.234375 37.882812 443.5625 37.425781 C 442.914062 36.96875 442.269531 36.515625 441.597656 36.058594 C 440.949219 35.601562 440.300781 35.148438 439.632812 34.691406 C 438.984375 34.238281 438.335938 33.78125 437.664062 33.324219 C 437.019531 32.847656 436.347656 32.390625 435.675781 31.933594 C 435.050781 31.480469 434.40625 31.023438 433.734375 30.59375 C 433.085938 30.136719 432.4375 29.679688 431.765625 29.226562 C 431.121094 28.769531 430.472656 28.316406 429.800781 27.859375 C 429.152344 27.402344 428.507812 26.949219 427.835938 26.492188 C 427.1875 26.011719 426.515625 25.558594 425.84375 25.101562 C 425.222656 24.644531 424.574219 24.191406 423.902344 23.757812 C 423.253906 23.304688 422.609375 22.847656 421.9375 22.394531 C 406.617188 11.21875 385.421875 4.84375 360.320312 4.84375 C 314.742188 4.84375 258.734375 30.710938 218.046875 70.007812 C 188.367188 57.589844 157.652344 45.914062 124.613281 45.914062 C 82.5625 45.914062 48.347656 75.929688 48.347656 112.804688 C 48.347656 147.617188 70.09375 173.03125 91.839844 187.847656 C 92.488281 188.304688 93.136719 188.785156 93.804688 189.214844 C 94.476562 189.695312 95.125 190.148438 95.796875 190.605469 C 96.445312 191.0625 97.066406 191.515625 97.714844 191.949219 C 98.363281 192.402344 99.007812 192.882812 99.679688 193.316406 C 100.328125 193.769531 100.976562 194.25 101.644531 194.683594 C 102.292969 195.136719 102.941406 195.617188 103.613281 196.046875 C 104.257812 196.503906 104.90625 196.984375 105.578125 197.414062 C 106.25 197.894531 106.898438 198.351562 107.566406 198.804688 C 108.214844 199.261719 108.839844 199.714844 109.488281 200.148438 C 110.132812 200.605469 110.78125 201.082031 111.453125 201.515625 C 112.101562 201.96875 112.746094 202.449219 113.417969 202.882812 C 114.066406 203.335938 114.714844 203.816406 115.382812 204.25 C 116.054688 204.726562 116.703125 205.183594 117.375 205.640625 C 118.023438 206.09375 118.644531 206.550781 119.292969 206.980469 C 119.941406 207.4375 120.585938 207.917969 121.257812 208.347656 C 121.90625 208.804688 122.554688 209.28125 123.222656 209.714844 C 123.871094 210.171875 124.519531 210.648438 125.191406 211.082031 C 125.863281 211.5625 126.507812 212.015625 127.179688 212.472656 C 127.828125 212.925781 128.449219 213.382812 129.097656 213.816406 C 129.746094 214.269531 130.394531 214.75 131.066406 215.179688 C 131.710938 215.636719 132.359375 216.117188 133.03125 216.546875 C 133.679688 217.003906 134.324219 217.484375 134.996094 217.914062 C 135.667969 218.394531 136.316406 218.847656 136.988281 219.304688 C 137.632812 219.761719 138.257812 220.214844 138.90625 220.648438 C 139.550781 221.101562 140.199219 221.582031 140.871094 222.015625 C 141.519531 222.46875 142.164062 222.949219 142.835938 223.378906 C 143.484375 223.835938 144.132812 224.316406 144.800781 224.746094 C 145.449219 225.203125 146.097656 225.683594 146.769531 226.113281 C 147.441406 226.59375 148.085938 227.050781 148.757812 227.503906 C 149.40625 227.960938 150.027344 228.414062 150.675781 228.847656 C 151.324219 229.304688 151.972656 229.78125 152.640625 230.214844 C 153.289062 230.667969 153.9375 231.148438 154.609375 231.582031 C 155.257812 232.035156 155.902344 232.515625 156.574219 232.945312 C 156.863281 233.164062 157.175781 233.378906 157.460938 233.59375 C 161.992188 261.957031 175.226562 285.742188 196.492188 303.171875 C 198.554688 304.851562 200.714844 306.457031 202.917969 308.015625 C 203.566406 308.496094 204.214844 308.925781 204.886719 309.382812 C 206.15625 310.316406 207.476562 311.226562 208.816406 312.140625 C 209.441406 312.59375 210.113281 313.050781 210.757812 313.503906 C 211.40625 313.984375 212.054688 314.417969 212.726562 314.871094 C 213.371094 315.351562 214.019531 315.78125 214.691406 316.238281 C 215.960938 317.171875 217.28125 318.085938 218.625 318.996094 C 219.246094 319.453125 219.917969 319.90625 220.566406 320.363281 C 221.214844 320.84375 221.859375 321.273438 222.53125 321.730469 C 223.179688 322.207031 223.828125 322.640625 224.496094 323.097656 C 225.144531 323.574219 225.792969 324.007812 226.464844 324.460938 C 227.734375 325.398438 229.054688 326.308594 230.394531 327.21875 C 231.019531 327.675781 231.691406 328.128906 232.335938 328.585938 C 232.984375 329.066406 233.632812 329.496094 234.304688 329.953125 C 234.949219 330.433594 235.597656 330.863281 236.269531 331.320312 C 237.539062 332.253906 238.859375 333.164062 240.203125 334.078125 C 240.824219 334.53125 241.496094 334.988281 242.144531 335.441406 C 242.789062 335.921875 243.4375 336.355469 244.109375 336.808594 C 244.757812 337.289062 245.40625 337.722656 246.074219 338.175781 C 247.347656 339.113281 248.664062 340.023438 250.007812 340.933594 C 250.632812 341.390625 251.300781 341.84375 251.949219 342.300781 C 252.597656 342.78125 253.246094 343.210938 253.914062 343.667969 C 254.5625 344.148438 255.210938 344.578125 255.882812 345.035156 C 256.527344 345.511719 257.175781 345.945312 257.847656 346.398438 C 259.117188 347.335938 260.4375 348.246094 261.78125 349.15625 C 262.402344 349.613281 263.074219 350.070312 263.722656 350.523438 C 264.367188 351.003906 265.015625 351.433594 265.6875 351.890625 C 266.335938 352.371094 266.980469 352.800781 267.652344 353.257812 C 268.925781 354.191406 270.242188 355.101562 271.585938 356.015625 C 272.210938 356.46875 272.878906 356.925781 273.527344 357.382812 C 274.175781 357.859375 274.824219 358.292969 275.492188 358.746094 C 276.140625 359.226562 276.789062 359.660156 277.460938 360.113281 C 278.730469 361.050781 280.050781 361.960938 281.390625 362.871094 C 282.015625 363.328125 282.6875 363.78125 283.332031 364.238281 C 283.980469 364.71875 284.628906 365.148438 285.300781 365.605469 C 285.945312 366.085938 286.59375 366.515625 287.265625 366.972656 C 287.914062 367.449219 288.558594 367.882812 289.230469 368.339844 C 290.503906 369.273438 291.820312 370.183594 293.164062 371.09375 C 293.789062 371.550781 294.457031 372.007812 295.105469 372.460938 C 295.753906 372.941406 296.402344 373.371094 297.070312 373.828125 C 297.71875 374.308594 298.367188 374.738281 299.039062 375.195312 C 300.308594 376.128906 301.628906 377.042969 302.96875 377.953125 C 303.59375 378.40625 304.265625 378.863281 304.910156 379.320312 C 305.558594 379.796875 306.207031 380.230469 306.878906 380.6875 C 307.523438 381.164062 308.171875 381.597656 308.84375 382.050781 C 310.113281 382.988281 311.433594 383.898438 312.777344 384.808594 C 313.398438 385.265625 314.070312 385.71875 314.71875 386.175781 C 315.363281 386.65625 316.011719 387.085938 316.683594 387.542969 C 317.332031 388.023438 317.980469 388.453125 318.648438 388.910156 C 341.546875 405.789062 372.117188 415.042969 405.441406 415.042969 C 434.738281 415.042969 463.511719 404.015625 483.316406 391.089844 C 483.9375 391.546875 484.5625 391.976562 485.207031 392.410156 C 485.832031 392.890625 486.503906 393.34375 487.175781 393.777344 C 487.796875 394.257812 488.46875 394.710938 489.140625 395.144531 C 489.765625 395.621094 490.433594 396.078125 491.105469 396.507812 C 491.753906 396.988281 492.402344 397.445312 493.074219 397.875 C 493.695312 398.332031 494.34375 398.789062 495.015625 399.242188 C 495.636719 399.722656 496.308594 400.179688 496.980469 400.609375 C 497.605469 401.089844 498.277344 401.542969 498.945312 401.976562 C 511.03125 410.96875 530.476562 414.730469 549.390625 414.996094 C 549.773438 415.257812 550.160156 415.523438 550.542969 415.785156 C 551.191406 416.242188 551.835938 416.722656 552.507812 417.152344 C 553.15625 417.632812 553.828125 418.085938 554.5 418.542969 C 555.144531 419 555.769531 419.453125 556.417969 419.886719 C 557.0625 420.339844 557.710938 420.820312 558.382812 421.253906 C 559.03125 421.707031 559.675781 422.1875 560.347656 422.621094 C 560.996094 423.074219 561.644531 423.554688 562.316406 423.984375 C 562.960938 424.464844 563.632812 424.921875 564.304688 425.375 C 564.953125 425.832031 565.574219 426.289062 566.222656 426.71875 C 566.871094 427.175781 567.515625 427.652344 568.1875 428.085938 C 568.835938 428.542969 569.484375 429.019531 570.15625 429.453125 C 570.800781 429.90625 571.449219 430.386719 572.121094 430.820312 C 572.769531 431.273438 573.414062 431.753906 574.085938 432.183594 C 574.734375 432.640625 575.382812 433.121094 576.054688 433.550781 C 576.699219 434.007812 577.324219 434.464844 577.996094 434.917969 C 578.640625 435.375 579.289062 435.855469 579.960938 436.285156 C 580.609375 436.742188 581.253906 437.21875 581.925781 437.652344 C 582.574219 438.109375 583.222656 438.585938 583.894531 439.019531 C 584.539062 439.5 585.210938 439.953125 585.882812 440.410156 C 586.53125 440.863281 587.152344 441.320312 587.800781 441.75 C 588.449219 442.207031 589.09375 442.6875 589.765625 443.117188 C 590.414062 443.574219 591.0625 444.054688 591.734375 444.484375 C 592.378906 444.941406 593.027344 445.421875 593.699219 445.851562 C 594.347656 446.332031 595.019531 446.785156 595.6875 447.242188 C 596.335938 447.699219 596.960938 448.152344 597.605469 448.585938 C 598.253906 449.039062 598.902344 449.519531 599.574219 449.953125 C 600.21875 450.40625 600.867188 450.886719 601.539062 451.316406 C 602.1875 451.773438 602.832031 452.253906 603.503906 452.683594 C 604.152344 453.164062 604.824219 453.621094 605.496094 454.074219 C 606.140625 454.53125 606.765625 454.988281 607.4375 455.417969 C 608.085938 455.875 608.730469 456.351562 609.378906 456.785156 C 610.027344 457.238281 610.671875 457.71875 611.34375 458.152344 C 611.992188 458.605469 612.640625 459.085938 613.3125 459.519531 C 627.167969 469.417969 644.863281 475.222656 664.617188 475.222656 C 716.285156 475.222656 755.175781 443.046875 755.175781 422.164062 C 755.175781 419.09375 754.503906 416.242188 753.328125 413.675781 C 759.132812 411.757812 762.441406 408.066406 764.09375 405.597656 C 767.667969 400.25 768.121094 394.230469 768.121094 389.605469 C 768.121094 385.578125 768.984375 380.878906 770.449219 375.722656 C 770.78125 375.960938 771.144531 376.203125 771.476562 376.441406 C 772.125 376.898438 772.773438 377.378906 773.421875 377.808594 C 774.066406 378.265625 774.714844 378.742188 775.386719 379.175781 C 776.035156 379.632812 776.679688 380.109375 777.351562 380.542969 C 778 380.996094 778.648438 381.476562 779.320312 381.910156 C 779.964844 382.386719 780.636719 382.84375 781.308594 383.300781 C 781.957031 383.753906 782.578125 384.210938 783.226562 384.640625 C 783.875 385.097656 784.519531 385.578125 785.191406 386.007812 C 785.839844 386.464844 786.488281 386.945312 787.160156 387.375 C 787.804688 387.832031 788.453125 388.308594 789.125 388.742188 C 789.773438 389.222656 790.441406 389.675781 791.113281 390.132812 C 791.761719 390.585938 792.386719 391.042969 793.03125 391.476562 C 793.679688 391.929688 794.328125 392.410156 795 392.839844 C 795.644531 393.296875 796.292969 393.777344 796.964844 394.207031 C 797.613281 394.664062 798.257812 395.144531 798.929688 395.574219 C 799.578125 396.03125 800.226562 396.511719 800.898438 396.941406 C 801.542969 397.421875 802.191406 397.875 802.863281 398.332031 C 803.511719 398.789062 804.132812 399.242188 804.804688 399.675781 C 805.453125 400.128906 806.097656 400.609375 806.769531 401.042969 C 807.417969 401.496094 808.066406 401.976562 808.738281 402.40625 C 820.582031 410.96875 835.949219 415.835938 853.570312 415.835938 C 892.84375 415.835938 920.703125 402.191406 938.566406 386.609375 C 938.683594 386.679688 938.78125 386.75 938.902344 386.847656 C 939.523438 387.328125 940.195312 387.78125 940.867188 388.214844 C 941.515625 388.695312 942.160156 389.148438 942.832031 389.605469 C 943.457031 390.058594 944.101562 390.515625 944.773438 390.949219 C 945.398438 391.425781 946.070312 391.882812 946.742188 392.3125 C 947.363281 392.792969 948.035156 393.25 948.707031 393.679688 C 949.328125 394.160156 950 394.617188 950.671875 395.046875 C 951.296875 395.527344 951.96875 395.984375 952.640625 396.414062 C 953.285156 396.894531 953.933594 397.347656 954.605469 397.78125 C 955.226562 398.234375 955.875 398.691406 956.546875 399.148438 C 957.171875 399.625 957.839844 400.082031 958.511719 400.515625 C 959.136719 400.992188 959.808594 401.449219 960.480469 401.878906 C 972.992188 411.207031 993.421875 414.921875 1013.007812 414.921875 C 1024.207031 414.921875 1029.792969 409.050781 1032.117188 405.546875 C 1035.691406 400.203125 1036.144531 394.183594 1036.144531 389.558594 C 1036.21875 381.164062 1050.722656 336.5 1068.082031 297.730469 C 1104.714844 294.710938 1120.0625 264.285156 1120.0625 247.597656 C 1120.0625 238.894531 1116.34375 233.210938 1111.261719 230.214844 C 1110.636719 229.710938 1109.992188 229.253906 1109.296875 228.847656 C 1108.671875 228.34375 1108.023438 227.890625 1107.328125 227.480469 C 1106.707031 226.976562 1106.058594 226.523438 1105.363281 226.113281 C 1104.738281 225.613281 1104.09375 225.15625 1103.398438 224.75 C 1102.773438 224.246094 1102.125 223.789062 1101.457031 223.382812 C 1101 223.023438 1100.542969 222.6875 1100.066406 222.375 C 1102.246094 217.4375 1104.476562 212.542969 1106.660156 208.0625 C 1107.089844 208.371094 1107.546875 208.660156 1108.023438 208.949219 C 1108.625 209.453125 1109.296875 209.90625 1109.992188 210.316406 C 1110.613281 210.820312 1111.261719 211.273438 1111.957031 211.679688 C 1112.582031 212.183594 1113.226562 212.640625 1113.921875 213.046875 C 1114.523438 213.550781 1115.167969 214.007812 1115.863281 214.414062 C 1116.464844 214.917969 1117.136719 215.375 1117.832031 215.78125 C 1118.429688 216.285156 1119.101562 216.742188 1119.796875 217.148438 C 1122.480469 219.328125 1125.910156 220.746094 1130.394531 220.746094 C 1151.851562 220.746094 1177.648438 186.796875 1177.648438 165.457031 C 1177.648438 151.574219 1168.660156 139.347656 1156 130.789062 Z M 1156.242188 130.527344 " fill-opacity="1" fill-rule="nonzero"/></g><path fill="#f3fadc" d="M 222.773438 87.105469 C 263.386719 44.261719 319.632812 19.253906 361.59375 19.253906 C 403.550781 19.253906 435.246094 38.890625 435.246094 74.613281 C 435.246094 120.144531 383.914062 140.234375 336.152344 140.234375 C 316.0625 140.234375 294.195312 137.550781 271.875 133.976562 C 261.613281 158.527344 255.355469 187.539062 255.355469 220.121094 C 255.355469 262.078125 280.363281 282.628906 310.714844 282.628906 C 329.007812 282.628906 342.867188 276.371094 356.699219 266.5625 C 360.730469 263.878906 362.957031 262.535156 365.621094 262.535156 C 369.648438 262.535156 375.449219 273.253906 375.449219 278.167969 C 375.449219 281.738281 373.21875 284.855469 368.761719 288.882812 C 352.695312 302.71875 321.433594 317.894531 288.851562 317.894531 C 226.800781 317.894531 171.441406 283.515625 171.441406 210.773438 C 171.441406 177.734375 180.816406 147.378906 196.449219 121.941406 C 184.386719 120.144531 172.785156 119.257812 162.066406 119.257812 C 137.058594 119.257812 124.113281 130.40625 124.113281 149.609375 C 124.113281 168.816406 136.171875 179.078125 136.171875 183.535156 C 136.171875 186.222656 133.941406 187.996094 130.371094 187.996094 C 116.082031 187.996094 64.292969 160.328125 64.292969 112.566406 C 64.292969 83.558594 92.417969 60.347656 125.886719 60.347656 C 159.359375 60.347656 191.054688 73.75 222.75 87.128906 Z M 285.734375 107.199219 C 292.421875 108.085938 299.136719 108.539062 305.824219 108.539062 C 355.8125 108.539062 379.476562 85.785156 379.476562 66.582031 C 379.476562 57.664062 372.789062 50.519531 362.503906 50.519531 C 338.40625 50.519531 308.054688 71.042969 285.734375 107.222656 Z M 285.734375 107.199219 " fill-opacity="1" fill-rule="nonzero"/><path fill="#f3fadc" d="M 553.109375 299.578125 C 553.109375 321.898438 567.398438 339.304688 594.179688 339.304688 C 608.015625 339.304688 614.273438 334.390625 618.277344 334.390625 C 621.390625 334.390625 623.621094 336.621094 623.621094 339.738281 C 623.621094 348.65625 595.953125 378.121094 547.738281 378.121094 C 510.695312 378.121094 480.34375 353.570312 480.34375 317.414062 C 480.34375 265.195312 521.414062 219.667969 521.414062 201.804688 C 521.414062 197.777344 518.730469 194.660156 514.269531 194.660156 C 505.78125 194.660156 486.601562 201.351562 473.65625 223.671875 C 459.820312 246.878906 443.300781 291.976562 443.300781 307.15625 C 443.300781 313.84375 441.957031 317.871094 434.8125 317.871094 C 413.835938 317.871094 384.824219 312.523438 384.824219 296.4375 C 384.824219 266.972656 471.425781 91.996094 471.425781 58.070312 C 471.425781 53.613281 475.453125 50.496094 483.914062 50.496094 C 507.125 50.496094 527.671875 70.585938 527.671875 83.078125 C 527.671875 102.28125 492.859375 170.566406 492.859375 176.367188 C 492.859375 177.253906 493.3125 177.710938 494.203125 177.710938 C 495.976562 177.710938 526.785156 156.730469 555.363281 156.730469 C 577.683594 156.730469 589.746094 168.335938 589.746094 186.195312 C 589.746094 216.550781 553.132812 256.277344 553.132812 299.578125 Z M 553.109375 299.578125 " fill-opacity="1" fill-rule="nonzero"/><path fill="#f3fadc" d="M 636.59375 307.179688 C 636.59375 313.867188 635.25 317.894531 628.105469 317.894531 C 607.125 317.894531 578.117188 312.546875 578.117188 296.460938 C 578.117188 264.332031 622.757812 200.03125 622.757812 164.332031 C 622.757812 159.871094 626.785156 156.730469 635.25 156.730469 C 662.03125 156.730469 678.550781 176.824219 678.550781 189.3125 C 678.550781 215.207031 636.59375 273.230469 636.59375 307.152344 Z M 688.378906 68.355469 C 704.445312 68.355469 716.503906 78.617188 716.503906 95.136719 C 716.503906 117.890625 699.097656 139.324219 678.550781 139.324219 C 662.917969 139.324219 649.085938 129.0625 649.085938 113 C 649.085938 89.789062 666.492188 68.355469 688.355469 68.355469 Z M 688.378906 68.355469 " fill-opacity="1" fill-rule="nonzero"/><path fill="#f3fadc" d="M 824.96875 256.734375 C 828.542969 256.734375 832.113281 260.304688 832.113281 264.332031 C 832.113281 272.367188 806.675781 318.78125 736.59375 318.78125 C 706.242188 318.78125 680.804688 300.488281 680.804688 267.882812 C 680.804688 212.523438 741.054688 156.730469 802.214844 156.730469 C 836.597656 156.730469 849.976562 174.59375 849.976562 192 C 849.976562 226.378906 793.730469 254.933594 753.546875 262.535156 C 756.230469 271.910156 763.375 277.257812 776.300781 277.257812 C 806.652344 277.257812 818.257812 256.734375 824.945312 256.734375 Z M 753.976562 237.097656 C 782.988281 229.066406 807.109375 208.085938 807.109375 194.253906 C 807.109375 188.90625 803.992188 186.652344 799.507812 186.652344 C 785.21875 186.652344 761.121094 209.859375 753.976562 237.097656 Z M 753.976562 237.097656 " fill-opacity="1" fill-rule="nonzero"/><path fill="#f3fadc" d="M 1045.929688 83.078125 C 1045.929688 98.710938 1024.496094 123.691406 1013.347656 123.691406 C 1006.203125 123.691406 1008 92.453125 995.941406 92.453125 C 984.792969 92.453125 961.128906 154.5 958.898438 160.757812 C 958.898438 160.757812 978.535156 159.871094 984.335938 159.871094 C 987.453125 159.871094 988.363281 161.644531 988.363281 165.21875 C 988.363281 173.25 978.535156 200.917969 945.0625 200.917969 C 941.492188 200.917969 941.035156 202.714844 939.261719 205.832031 C 922.742188 241.988281 904.449219 294.207031 904.449219 307.152344 C 904.449219 313.84375 903.105469 317.871094 895.960938 317.871094 C 874.984375 317.871094 845.972656 312.523438 845.972656 296.4375 C 845.972656 284.832031 866.496094 230.382812 878.097656 200.007812 C 868.269531 200.007812 864.695312 197.777344 864.695312 194.203125 C 864.695312 186.605469 873.183594 161.167969 894.59375 161.167969 C 918.691406 100.460938 943.695312 50.472656 999.058594 50.472656 C 1021.832031 50.472656 1045.929688 66.988281 1045.929688 83.054688 Z M 1045.929688 83.078125 " fill-opacity="1" fill-rule="nonzero"/></svg>